<svg width="72" height="164" viewBox="0 0 72 164" fill="none" xmlns="http://www.w3.org/2000/svg">
<path d="M41.9223 111.845C45.8518 111.845 49.7428 111.071 53.3731 109.567C57.0034 108.063 60.3021 105.859 63.0806 103.081C65.8591 100.302 68.0632 97.0034 69.5669 93.3731C71.0707 89.7428 71.8446 85.8518 71.8446 81.9223C71.8446 77.9929 71.0707 74.1019 69.5669 70.4715C68.0632 66.8412 65.8591 63.5426 63.0806 60.764C60.3021 57.9855 57.0034 55.7814 53.3731 54.2777C49.7428 52.774 45.8518 52 41.9223 52V59.8359C44.8227 59.8359 47.6948 60.4072 50.3744 61.5171C53.0541 62.6271 55.4889 64.254 57.5398 66.3049C59.5907 68.3558 61.2175 70.7906 62.3275 73.4702C63.4374 76.1499 64.0087 79.0219 64.0087 81.9223C64.0087 84.8228 63.4374 87.6948 62.3275 90.3744C61.2175 93.0541 59.5907 95.4889 57.5398 97.5398C55.4889 99.5907 53.0541 101.218 50.3744 102.327C47.6948 103.437 44.8227 104.009 41.9223 104.009V111.845Z" fill="#FFC107"/>
<circle cx="5.5" cy="53.5" r="1.5" fill="#0E1947"/>
<circle cx="15.23" cy="53.5" r="1.5" fill="#0E1947"/>
<circle cx="24.96" cy="53.5" r="1.5" fill="#0E1947"/>
<circle cx="34.69" cy="53.5" r="1.5" fill="#0E1947"/>
<circle cx="5.5" cy="61.5996" r="1.5" fill="#0E1947"/>
<circle cx="15.23" cy="61.5996" r="1.5" fill="#0E1947"/>
<circle cx="24.96" cy="61.5996" r="1.5" fill="#0E1947"/>
<circle cx="34.69" cy="61.5996" r="1.5" fill="#0E1947"/>
<circle cx="5.5" cy="69.6992" r="1.5" fill="#0E1947"/>
<circle cx="15.23" cy="69.6992" r="1.5" fill="#0E1947"/>
<circle cx="24.96" cy="69.6992" r="1.5" fill="#0E1947"/>
<circle cx="34.69" cy="69.6992" r="1.5" fill="#0E1947"/>
<circle cx="5.5" cy="77.8008" r="1.5" fill="#0E1947"/>
<circle cx="15.23" cy="77.8008" r="1.5" fill="#0E1947"/>
<circle cx="24.96" cy="77.8008" r="1.5" fill="#0E1947"/>
<circle cx="34.69" cy="77.8008" r="1.5" fill="#0E1947"/>
<circle cx="5.5" cy="85.9004" r="1.5" fill="#0E1947"/>
<circle cx="15.23" cy="85.9004" r="1.5" fill="#0E1947"/>
<circle cx="24.96" cy="85.9004" r="1.5" fill="#0E1947"/>
<circle cx="34.69" cy="85.9004" r="1.5" fill="#0E1947"/>
<circle cx="5.5" cy="94" r="1.5" fill="#0E1947"/>
<circle cx="15.23" cy="94" r="1.5" fill="#0E1947"/>
<circle cx="24.96" cy="94" r="1.5" fill="#0E1947"/>
<circle cx="34.69" cy="94" r="1.5" fill="#0E1947"/>
<circle cx="5.5" cy="102.1" r="1.5" fill="#0E1947"/>
<circle cx="15.23" cy="102.1" r="1.5" fill="#0E1947"/>
<circle cx="24.96" cy="102.1" r="1.5" fill="#0E1947"/>
<circle cx="34.69" cy="102.1" r="1.5" fill="#0E1947"/>
<circle cx="5.5" cy="110.199" r="1.5" fill="#0E1947"/>
<circle cx="15.23" cy="110.199" r="1.5" fill="#0E1947"/>
<circle cx="24.96" cy="110.199" r="1.5" fill="#0E1947"/>
<circle cx="34.69" cy="110.199" r="1.5" fill="#0E1947"/>
</svg>
