<svg width="451" height="58" viewBox="0 0 451 58" fill="none" xmlns="http://www.w3.org/2000/svg">
<g clip-path="url(#clip0_8006_521)">
<path d="M-41 57.918L129.878 -238.051" stroke="#0E1947" stroke-width="2.5"/>
<path d="M-24.6927 67.332L146.185 -228.637" stroke="#0E1947" stroke-width="2.5"/>
<path d="M-8.3855 76.748L162.492 -219.221" stroke="#0E1947" stroke-width="2.5"/>
<path d="M7.92178 86.1621L178.799 -209.806" stroke="#0E1947" stroke-width="2.5"/>
<path d="M24.229 95.5781L195.107 -200.39" stroke="#0E1947" stroke-width="2.5"/>
<path d="M40.5363 104.992L211.414 -190.976" stroke="#0E1947" stroke-width="2.5"/>
<path d="M56.8435 114.408L227.721 -181.56" stroke="#0E1947" stroke-width="2.5"/>
<path d="M73.1508 123.822L244.028 -172.146" stroke="#0E1947" stroke-width="2.5"/>
<path d="M89.4581 133.238L260.336 -162.73" stroke="#0E1947" stroke-width="2.5"/>
<path d="M105.765 142.652L276.643 -153.316" stroke="#0E1947" stroke-width="2.5"/>
<path d="M122.073 152.068L292.95 -143.9" stroke="#0E1947" stroke-width="2.5"/>
<path d="M138.38 161.482L309.257 -134.486" stroke="#0E1947" stroke-width="2.5"/>
<path d="M154.687 170.898L325.565 -125.07" stroke="#0E1947" stroke-width="2.5"/>
<path d="M170.994 180.312L341.872 -115.656" stroke="#0E1947" stroke-width="2.5"/>
<path d="M187.302 189.729L358.179 -106.24" stroke="#0E1947" stroke-width="2.5"/>
<path d="M203.609 199.143L374.486 -96.826" stroke="#0E1947" stroke-width="2.5"/>
<path d="M219.916 208.559L390.794 -87.41" stroke="#0E1947" stroke-width="2.5"/>
<path d="M236.223 217.973L407.101 -77.9959" stroke="#0E1947" stroke-width="2.5"/>
<path d="M252.531 227.389L423.408 -68.5799" stroke="#0E1947" stroke-width="2.5"/>
<path d="M268.838 236.803L439.715 -59.1658" stroke="#0E1947" stroke-width="2.5"/>
<path d="M285.145 246.219L456.023 -49.7498" stroke="#0E1947" stroke-width="2.5"/>
<path d="M301.452 255.633L472.33 -40.3357" stroke="#0E1947" stroke-width="2.5"/>
<path d="M317.76 265.049L488.637 -30.9197" stroke="#0E1947" stroke-width="2.5"/>
</g>
<defs>
<clipPath id="clip0_8006_521">
<rect width="451" height="58" fill="white" transform="matrix(1 0 0 -1 0 58)"/>
</clipPath>
</defs>
</svg>
