<svg width="72" height="164" viewBox="0 0 72 164" fill="none" xmlns="http://www.w3.org/2000/svg">
<circle cx="5.5" cy="47.5" r="1.5" fill="#0E1947"/>
<circle cx="15.229" cy="47.5" r="1.5" fill="#0E1947"/>
<circle cx="24.9579" cy="47.5" r="1.5" fill="#0E1947"/>
<circle cx="34.6869" cy="47.5" r="1.5" fill="#0E1947"/>
<circle cx="44.4159" cy="47.5" r="1.5" fill="#0E1947"/>
<circle cx="5.5" cy="57.2285" r="1.5" fill="#0E1947"/>
<circle cx="15.229" cy="57.2285" r="1.5" fill="#0E1947"/>
<circle cx="24.9579" cy="57.2285" r="1.5" fill="#0E1947"/>
<circle cx="34.6869" cy="57.2285" r="1.5" fill="#0E1947"/>
<circle cx="44.4159" cy="57.2285" r="1.5" fill="#0E1947"/>
<circle cx="5.5" cy="66.957" r="1.5" fill="#0E1947"/>
<circle cx="15.229" cy="66.957" r="1.5" fill="#0E1947"/>
<circle cx="24.9579" cy="66.957" r="1.5" fill="#0E1947"/>
<circle cx="34.6869" cy="66.957" r="1.5" fill="#0E1947"/>
<circle cx="44.4159" cy="66.957" r="1.5" fill="#0E1947"/>
<circle cx="5.5" cy="76.6875" r="1.5" fill="#0E1947"/>
<circle cx="15.229" cy="76.6875" r="1.5" fill="#0E1947"/>
<circle cx="24.9579" cy="76.6875" r="1.5" fill="#0E1947"/>
<circle cx="34.6869" cy="76.6875" r="1.5" fill="#0E1947"/>
<circle cx="44.4159" cy="76.6875" r="1.5" fill="#0E1947"/>
<circle cx="5.5" cy="86.416" r="1.5" fill="#0E1947"/>
<circle cx="15.229" cy="86.416" r="1.5" fill="#0E1947"/>
<circle cx="24.9579" cy="86.416" r="1.5" fill="#0E1947"/>
<circle cx="34.6869" cy="86.416" r="1.5" fill="#0E1947"/>
<circle cx="44.4159" cy="86.416" r="1.5" fill="#0E1947"/>
<circle cx="5.5" cy="96.1445" r="1.5" fill="#0E1947"/>
<circle cx="15.229" cy="96.1445" r="1.5" fill="#0E1947"/>
<circle cx="24.9579" cy="96.1445" r="1.5" fill="#0E1947"/>
<circle cx="34.6869" cy="96.1445" r="1.5" fill="#0E1947"/>
<circle cx="44.4159" cy="96.1445" r="1.5" fill="#0E1947"/>
<circle cx="5.5" cy="105.873" r="1.5" fill="#0E1947"/>
<circle cx="15.229" cy="105.873" r="1.5" fill="#0E1947"/>
<circle cx="24.9579" cy="105.873" r="1.5" fill="#0E1947"/>
<circle cx="34.6869" cy="105.873" r="1.5" fill="#0E1947"/>
<circle cx="44.4159" cy="105.873" r="1.5" fill="#0E1947"/>
<circle cx="5.5" cy="115.604" r="1.5" fill="#0E1947"/>
<circle cx="15.229" cy="115.604" r="1.5" fill="#0E1947"/>
<circle cx="24.9579" cy="115.604" r="1.5" fill="#0E1947"/>
<circle cx="34.6869" cy="115.604" r="1.5" fill="#0E1947"/>
<circle cx="44.4159" cy="115.604" r="1.5" fill="#0E1947"/>
<path d="M3.13098 77.6233L27.4444 53.3099L40.8006 66.6661L64.8417 42.625" stroke="#FFC107" stroke-width="8"/>
<path d="M71.8058 35.6887L66.2974 56.2464L51.2481 41.1971L71.8058 35.6887Z" fill="#FFC107"/>
</svg>
